<?xml version="1.0" encoding="utf-8"?>
<!-- Generator: Adobe Illustrator 22.0.0, SVG Export Plug-In . SVG Version: 6.00 Build 0)  -->
<svg version="1.1" xmlns="http://www.w3.org/2000/svg" xmlns:xlink="http://www.w3.org/1999/xlink" x="0px" y="0px"
	 viewBox="0 0 512 512" style="enable-background:new 0 0 512 512;" xml:space="preserve">
<style type="text/css">
	.st0{fill:#EFEFEF;}
	.st1{fill:#EDEDED;}
	.st2{fill:#E1902B;}
	.st3{fill:#827382;}
	.st4{fill:#98CDE6;}
	.st5{clip-path:url(#SVGID_2_);fill:#43B06D;}
	.st6{clip-path:url(#SVGID_2_);fill:#4D917B;}
	.st7{fill:#FFDBC5;}
	.st8{fill:#E8B494;}
	.st9{fill:#DB4646;}
	.st10{fill:#E7AD84;}
	.st11{fill:#9EC853;}
	.st12{fill:#EBB290;}
	.st13{fill:#2961A5;}
	.st14{fill:#D49670;}
	.st15{fill:#4D917B;}
	.st16{fill:#78BEDE;}
	.st17{fill:#D4CDC1;}
	.st18{fill:#A18FA1;}
	.st19{fill:#3D2A3D;}
	.st20{fill:#FF826E;}
	.st21{fill:#E6A585;}
	.st22{fill:#142A7A;}
	.st23{fill:#FFD66C;}
	.st24{fill:#00D3D5;}
	.st25{fill:#B9EAF0;}
	.st26{fill:#EDB87B;}
	.st27{clip-path:url(#SVGID_4_);}
	.st28{fill:#D9904C;}
	.st29{fill:#F7B58D;}
	.st30{fill:#F7C8AB;}
	.st31{fill:#BABABA;}
	.st32{fill:#163A63;}
	.st33{fill:#F5BB47;}
	.st34{fill:#FFE999;}
	.st35{clip-path:url(#SVGID_6_);}
	.st36{fill:#B3B3B3;}
	.st37{fill:#F2C9B1;}
	.st38{clip-path:url(#SVGID_8_);}
	.st39{fill:#F2D7C4;}
	.st40{fill:#5D5660;}
	.st41{fill:#3B2D3F;}
	.st42{fill:#997999;}
	.st43{fill:#170F17;}
	.st44{clip-path:url(#SVGID_10_);}
</style>
<g id="Layer_6">
</g>
<g id="Layer_9">
</g>
<g id="Layer_7">
	<g>
		<g>
			<g>
				<g>
					<path class="st13" d="M341.6,172.4c0,48.8-88.4,140-88.4,140s-88.4-91.1-88.4-140c0-48.8,39.6-88.4,88.4-88.4
						C302,84,341.6,123.6,341.6,172.4z"/>
					<g>
						<g>
							
								<rect x="272.5" y="248.8" transform="matrix(0.7801 -0.6257 0.6257 0.7801 -138.7695 264.757)" class="st13" width="69.4" height="162"/>
							
								<rect x="118.2" y="295.1" transform="matrix(0.6257 -0.7801 0.7801 0.6257 -182.6817 278.8193)" class="st13" width="162" height="69.4"/>
						</g>
					</g>
				</g>
				<path class="st22" d="M269.6,197.6c-7.1,8.8-13.4,15.5-14.5,16.6l41.7,46.7c4.5-5.7,8.9-11.8,13.3-17.9L269.6,197.6z"/>
				<path class="st20" d="M290.8,157.8c0,20-36.2,57.3-36.2,57.3s-36.2-37.3-36.2-57.3c0-20,16.2-36.2,36.2-36.2
					C274.6,121.6,290.8,137.8,290.8,157.8z"/>
			</g>
			<polygon class="st22" points="192.5,281.4 236.4,336.2 253.9,315.2 209,259.5 			"/>
		</g>
	</g>
</g>
</svg>
